name Walk6.mot
datacolumns 19
datarows 22
range 0.92600000 0.94700000
endheader

                time	   L_ground_force_vx	   L_ground_force_vy	   L_ground_force_vz	   L_ground_force_px	   L_ground_force_py	   L_ground_force_pz	   R_ground_force_vx	   R_ground_force_vy	   R_ground_force_vz	   R_ground_force_px	   R_ground_force_py	   R_ground_force_pz	   L_ground_torque_x	   L_ground_torque_y	   L_ground_torque_z	   R_ground_torque_x	   R_ground_torque_y	   R_ground_torque_z	
          0.92600000	          0.00000000	          0.00000000	          0.00000000	          0.00000000	          0.00000000	          0.00000000	          0.00000000	          0.00000000	          0.00000000	          0.00000000	          0.00000000	          0.00000000	          0.00000000	          0.00000000	          0.00000000	          0.00000000	          0.00000000	          0.00000000	
          0.92700000	          0.00000000	          0.00000000	          0.00000000	          0.00000000	          0.00000000	          0.00000000	          0.00000000	          0.00000000	          0.00000000	          0.00000000	          0.00000000	          0.00000000	          0.00000000	          0.00000000	          0.00000000	          0.00000000	          0.00000000	          0.00000000	
          0.92800000	          0.00000000	          0.00000000	          0.00000000	          0.00000000	          0.00000000	          0.00000000	          0.00000000	          0.00000000	          0.00000000	          0.00000000	          0.00000000	          0.00000000	          0.00000000	          0.00000000	          0.00000000	          0.00000000	          0.00000000	          0.00000000	
          0.92900000	          0.00000000	          0.00000000	          0.00000000	          0.00000000	          0.00000000	          0.00000000	          0.00000000	          0.00000000	          0.00000000	          0.00000000	          0.00000000	          0.00000000	          0.00000000	          0.00000000	          0.00000000	          0.00000000	          0.00000000	          0.00000000	
          0.93000000	          0.00000000	          0.00000000	          0.00000000	          0.00000000	          0.00000000	          0.00000000	          0.00000000	          0.00000000	          0.00000000	          0.00000000	          0.00000000	          0.00000000	          0.00000000	          0.00000000	          0.00000000	          0.00000000	          0.00000000	          0.00000000	
          0.93100000	          2.26932472	         14.49455313	         -3.19479676	         -0.44007428	          0.00000000	         -0.00808301	          0.00000000	          0.00000000	          0.00000000	          0.00000000	          0.00000000	          0.00000000	          0.00000000	         -0.01788288	          0.00000000	          0.00000000	          0.00000000	          0.00000000	
          0.93200000	          3.34822067	         26.10711036	         -4.74712120	         -0.43769165	          0.00000000	         -0.00611737	          0.00000000	          0.00000000	          0.00000000	          0.00000000	          0.00000000	          0.00000000	          0.00000000	         -0.02179959	          0.00000000	          0.00000000	          0.00000000	          0.00000000	
          0.93300000	          4.50126829	         42.06997880	         -6.36301258	         -0.43565970	          0.00000000	         -0.00517712	          0.00000000	          0.00000000	          0.00000000	          0.00000000	          0.00000000	          0.00000000	          0.00000000	         -0.02622298	          0.00000000	          0.00000000	          0.00000000	          0.00000000	
          0.93400000	          5.74004773	         63.24104595	         -8.00163680	         -0.43386379	          0.00000000	         -0.00457726	          0.00000000	          0.00000000	          0.00000000	          0.00000000	          0.00000000	          0.00000000	          0.00000000	         -0.03495649	          0.00000000	          0.00000000	          0.00000000	          0.00000000	
          0.93500000	          7.09078515	         89.99819777	         -9.67396524	         -0.43243004	          0.00000000	         -0.00396951	          0.00000000	          0.00000000	          0.00000000	          0.00000000	          0.00000000	          0.00000000	          0.00000000	         -0.04634484	          0.00000000	          0.00000000	          0.00000000	          0.00000000	
          0.93600000	          8.52815715	        121.57200205	        -11.38110807	         -0.43142532	          0.00000000	         -0.00329745	          0.00000000	          0.00000000	          0.00000000	          0.00000000	          0.00000000	          0.00000000	          0.00000000	         -0.05449653	          0.00000000	          0.00000000	          0.00000000	          0.00000000	
          0.93700000	          9.94467107	        155.80768692	        -13.09421858	         -0.43077678	          0.00000000	         -0.00263878	          0.00000000	          0.00000000	          0.00000000	          0.00000000	          0.00000000	          0.00000000	          0.00000000	         -0.05443247	          0.00000000	          0.00000000	          0.00000000	          0.00000000	
          0.93800000	         11.14465331	        189.51920462	        -14.76678056	         -0.43035008	          0.00000000	         -0.00209917	          0.00000000	          0.00000000	          0.00000000	          0.00000000	          0.00000000	          0.00000000	          0.00000000	         -0.04637384	          0.00000000	          0.00000000	          0.00000000	          0.00000000	
          0.93900000	         11.86963986	        219.33363196	        -16.36265097	         -0.43003035	          0.00000000	         -0.00173493	          0.00000000	          0.00000000	          0.00000000	          0.00000000	          0.00000000	          0.00000000	          0.00000000	         -0.03470386	          0.00000000	          0.00000000	          0.00000000	          0.00000000	
          0.94000000	         11.86295872	        242.64623695	        -17.87419249	         -0.42974261	          0.00000000	         -0.00151875	          0.00000000	          0.00000000	          0.00000000	          0.00000000	          0.00000000	          0.00000000	          0.00000000	         -0.02230128	          0.00000000	          0.00000000	          0.00000000	          0.00000000	
          0.94100000	         10.94947025	        258.26699413	        -19.31419115	         -0.42944758	          0.00000000	         -0.00138415	          0.00000000	          0.00000000	          0.00000000	          0.00000000	          0.00000000	          0.00000000	          0.00000000	         -0.00715629	          0.00000000	          0.00000000	          0.00000000	          0.00000000	
          0.94200000	          9.08981800	        266.54130347	        -20.69617709	         -0.42913311	          0.00000000	         -0.00128953	          0.00000000	          0.00000000	          0.00000000	          0.00000000	          0.00000000	          0.00000000	          0.00000000	          0.01446213	          0.00000000	          0.00000000	          0.00000000	          0.00000000	
          0.94300000	          6.38859906	        269.00993972	        -22.01653288	         -0.42879476	          0.00000000	         -0.00122352	          0.00000000	          0.00000000	          0.00000000	          0.00000000	          0.00000000	          0.00000000	          0.00000000	          0.04289208	          0.00000000	          0.00000000	          0.00000000	          0.00000000	
          0.94400000	          3.05995445	        267.82654263	        -23.24430873	         -0.42841983	          0.00000000	         -0.00117068	          0.00000000	          0.00000000	          0.00000000	          0.00000000	          0.00000000	          0.00000000	          0.00000000	          0.07536630	          0.00000000	          0.00000000	          0.00000000	          0.00000000	
          0.94500000	         -0.63763216	        265.16631318	        -24.32969937	         -0.42799313	          0.00000000	         -0.00111566	          0.00000000	          0.00000000	          0.00000000	          0.00000000	          0.00000000	          0.00000000	          0.00000000	          0.11021190	          0.00000000	          0.00000000	          0.00000000	          0.00000000	
          0.94600000	         -4.47040877	        262.80020155	        -25.22782050	         -0.42753127	          0.00000000	         -0.00108476	          0.00000000	          0.00000000	          0.00000000	          0.00000000	          0.00000000	          0.00000000	          0.00000000	          0.14969324	          0.00000000	          0.00000000	          0.00000000	          0.00000000	
          0.94700000	         -8.27696887	        261.88938490	        -25.91980328	         -0.42708816	          0.00000000	         -0.00113799	          0.00000000	          0.00000000	          0.00000000	          0.00000000	          0.00000000	          0.00000000	          0.00000000	          0.19948614	          0.00000000	          0.00000000	          0.00000000	          0.00000000	
